<svg width="126" height="145" viewBox="0 0 126 145" fill="none" xmlns="http://www.w3.org/2000/svg">
<path d="M121.154 7.20263C117.577 1.78541 114.763 0 106.715 0C103.995 0 94.2466 2.2606 95.532 12.9994L97.7142 42.8606C97.714 50.3481 94.7025 57.5115 89.3796 62.6899L86.4667 65.5245C83.0054 68.8922 81.0479 73.55 81.0476 78.4191V86.9714C81.0476 92.11 76.9469 96.2763 71.8893 96.2763C70.3724 96.2766 69.1421 97.5262 69.1421 99.0675V110.812C69.1421 111.878 67.8839 112.424 67.1257 111.687L66.4602 111.039C65.9631 110.555 65.1794 110.555 64.6823 111.039L64.0168 111.687C63.2586 112.424 62.0004 111.878 62.0004 110.812V99.0675C62.0004 97.5262 60.7701 96.2766 59.2531 96.2763C54.1956 96.2763 50.0949 92.11 50.0949 86.9714V78.4191C50.0946 73.55 48.1371 68.8922 44.6758 65.5245L41.7629 62.6899C36.44 57.5115 33.4285 50.3481 33.4283 42.8606C33.4283 42.8606 36.3462 14.9817 36.3462 9.4324C37.0718 4.94025 30.511 -2.69634 14.6648 2.69421C8.53317 4.54409 4.25245 7.97846 1.82525 12.9992C-0.474278 17.8881 -0.600473 23.6374 1.44355 30.244L22.9065 101.397C25.717 110.646 28.8466 118.508 32.2958 124.982C35.8728 131.456 40.408 136.411 45.9013 139.846C51.5222 143.282 58.6118 145 67.1709 145C74.5804 145 80.4582 143.547 84.8018 140.64C89.2726 137.733 92.8494 133.637 95.532 128.352C98.3424 122.935 100.897 116.658 103.196 109.523L120.252 56.2068C121.785 51.3182 123.125 46.5614 124.275 41.937C125.424 37.3128 126 32.8206 126 28.4606C126 21.0612 124.859 12.4879 121.154 7.20263Z" fill="#ffffffff"/>
<path d="M78.7927 54.6857C80.1324 56.9261 83.9127 57.1386 87.2362 55.1603C90.5597 53.1821 92.1679 49.7622 90.8281 47.5218C89.4884 45.2813 85.7081 45.0688 82.3846 47.0471C79.0611 49.0253 77.4529 52.4453 78.7927 54.6857Z" fill="#fff"/>
<path d="M53.2304 54.6857C51.8906 56.9261 48.1103 57.1386 44.7868 55.1603C41.4633 53.1821 39.8552 49.7622 41.1949 47.5218C42.5346 45.2813 46.3149 45.0688 49.6384 47.0471C52.9619 49.0253 54.5701 52.4453 53.2304 54.6857Z" fill="#fff"/>
</svg>
