<svg width="70" height="48" viewBox="0 0 70 48" fill="none" xmlns="http://www.w3.org/2000/svg">
<path d="M24.3833 24.025C24.3833 15.4115 29.2889 7.89639 36.575 3.87152C32.9877 1.88985 28.8262 0.75 24.3833 0.75C10.9168 0.75 0 11.1706 0 24.025C0 36.8795 10.9168 47.3 24.3833 47.3C28.8262 47.3 32.9877 46.1601 36.575 44.1785C29.2889 40.1536 24.3833 32.6385 24.3833 24.025Z" fill="white"/>
<path d="M47.6585 0.750001C43.6196 0.750001 39.8364 1.88986 36.5752 3.87152C43.1989 7.89639 47.6585 15.4115 47.6585 24.025C47.6585 32.6386 43.1989 40.1536 36.5752 44.1785C39.8364 46.1601 43.6196 47.3 47.6585 47.3C59.9008 47.3 69.8252 36.8794 69.8252 24.025C69.8252 11.1706 59.9008 0.750001 47.6585 0.750001Z" fill="white"/>
</svg>
